# xmcd CD database file
#
# Track frame offsets:
#	150
#	12791
#	23057
#	39051
#	51674
#	68244
#	80616
#	96674
#	111749
#	131979
#	143699
#	154084
#	167433
#	178069
#	194673
#
# Disc length: 2783 seconds
#
# Revision: 0
# Processed by: cddbd v1.5.2PL0 Copyright (c) Steve Scherf et al.
# Submitted via: CDex 1.51
#
DISCID=d70add0f
DTITLE=BEM - A força do bem
DYEAR=2009
DGENRE=New Age
TTITLE0=A família é o lugar
TTITLE1=Amor ao próximo
TTITLE2=Luz do mundo
TTITLE3=Amor a si
TTITLE4=Evoluir
TTITLE5=Sopro do Criador
TTITLE6=Mais que começo
TTITLE7=Quem vai dizer de amor?
TTITLE8=Força do bem
TTITLE9=Algo a mais
TTITLE10=Reforma íntima
TTITLE11=Puro tu és
TTITLE12=Amor à vida
TTITLE13=O céu e o inferno
TTITLE14=Viagem ao centro de si
EXTD=YEAR: 2009
EXTT0=
EXTT1=
EXTT2=
EXTT3=
EXTT4=
EXTT5=
EXTT6=
EXTT7=
EXTT8=
EXTT9=
EXTT10=
EXTT11=
EXTT12=
EXTT13=
EXTT14=
PLAYORDER=
